<?xml version="1.0" encoding="UTF-8" standalone="no"?>
<!-- Created with Inkscape (http://www.inkscape.org/) -->

<svg
   xmlns:dc="http://purl.org/dc/elements/1.1/"
   xmlns:cc="http://creativecommons.org/ns#"
   xmlns:rdf="http://www.w3.org/1999/02/22-rdf-syntax-ns#"
   xmlns:svg="http://www.w3.org/2000/svg"
   xmlns="http://www.w3.org/2000/svg"
   xmlns:sodipodi="http://sodipodi.sourceforge.net/DTD/sodipodi-0.dtd"
   xmlns:inkscape="http://www.inkscape.org/namespaces/inkscape"
   width="648.47235mm"
   height="313.98068mm"
   viewBox="0 0 2297.7366 1112.53"
   id="svg4569"
   version="1.1"
   inkscape:version="0.91 r13725"
   sodipodi:docname="Ryerson University - Late 2015 Logo.svg">
  <defs
     id="defs4571">
    <clipPath
       clipPathUnits="userSpaceOnUse"
       id="clipPath4164">
      <path
         d="m 665.944,38.954 108,0 0,52.293 -108,0 0,-52.293 z"
         id="path4166"
         inkscape:connector-curvature="0" />
    </clipPath>
    <clipPath
       clipPathUnits="userSpaceOnUse"
       id="clipPath4152">
      <path
         d="m 0,0 1238,0 0,774 L 0,774 0,0 Z"
         id="path4154"
         inkscape:connector-curvature="0" />
    </clipPath>
  </defs>
  <sodipodi:namedview
     id="base"
     pagecolor="#ffffff"
     bordercolor="#666666"
     borderopacity="1.0"
     inkscape:pageopacity="0.0"
     inkscape:pageshadow="2"
     inkscape:zoom="0.24748737"
     inkscape:cx="2052.1481"
     inkscape:cy="247.66748"
     inkscape:document-units="px"
     inkscape:current-layer="layer1"
     showgrid="false"
     fit-margin-top="0"
     fit-margin-left="0"
     fit-margin-right="0"
     fit-margin-bottom="0"
     inkscape:window-width="1920"
     inkscape:window-height="1017"
     inkscape:window-x="-8"
     inkscape:window-y="-8"
     inkscape:window-maximized="1" />
  <metadata
     id="metadata4574">
    <rdf:RDF>
      <cc:Work
         rdf:about="">
        <dc:format>image/svg+xml</dc:format>
        <dc:type
           rdf:resource="http://purl.org/dc/dcmitype/StillImage" />
        <dc:title></dc:title>
      </cc:Work>
    </rdf:RDF>
  </metadata>
  <g
     inkscape:label="Layer 1"
     inkscape:groupmode="layer"
     id="layer1"
     transform="translate(-261.07148,-456.82242)">
    <g
       transform="matrix(21.275339,0,0,-21.275339,-13907.113,2398.112)"
       id="g4148">
      <g
         id="g4150"
         clip-path="url(#clipPath4152)">
        <path
           d="m 665.944,38.954 102.312,0 0,43.584 -102.312,0 0,-43.584 z"
           style="fill:#17559e;fill-opacity:1;fill-rule:nonzero;stroke:none"
           id="path4156"
           inkscape:connector-curvature="0" />
        <path
           d="m 759.548,47.662 14.396,0 0,43.584 -14.396,0 0,-43.584 z"
           style="fill:#fddd04;fill-opacity:1;fill-rule:nonzero;stroke:none"
           id="path4158"
           inkscape:connector-curvature="0" />
      </g>
    </g>
    <g
       transform="matrix(21.275339,0,0,-21.275339,-13907.113,2398.112)"
       id="g4160">
      <g
         id="g4162"
         clip-path="url(#clipPath4164)">
        <path
           d="m 680.5424,70.2642 -3.411,0 -0.14,0.137 0,2.973 0.134,0.146 3.417,0 c 1.247,0 1.803,-0.502 1.803,-1.628 0,-1.126 -0.556,-1.628 -1.803,-1.628 m 1.497,-1.833 c 1.245,0.302 2.644,1.396 2.644,3.461 0,2.265 -1.548,3.617 -4.141,3.617 l -5.746,0 -0.143,-0.143 0,-11.843 0.143,-0.143 2.052,0 0.143,0.143 0,4.584 0.149,0.168 1.898,-0.006 0.307,-0.167 3.505,-4.558 0.327,-0.164 1.014,0 0.143,0.143 0,1.707 -2.295,2.997 0,0.204 z"
           style="fill:#ffffff;fill-opacity:1;fill-rule:nonzero;stroke:none"
           id="path4168"
           inkscape:connector-curvature="0" />
        <path
           d="m 687.2545,59.9419 c 2.497,0 3.148,1.612 3.795,3.229 l 2.794,6.983 0,1.716 -0.143,0.143 -1.528,0 -0.151,-0.151 -2.133,-6.045 -0.205,0 -2.127,6.045 -0.15,0.151 -1.528,0 -0.143,-0.143 0,-1.715 2.797,-6.829 -0.003,-0.192 c -0.166,-0.632 -0.378,-1.235 -1.275,-1.203 l -1.029,0 -0.143,-0.143 0,-1.703 0.143,-0.143 1.029,0 z"
           style="fill:#ffffff;fill-opacity:1;fill-rule:nonzero;stroke:none"
           id="path4170"
           inkscape:connector-curvature="0" />
        <path
           d="m 697.1884,68.6498 c 0,0.43 0.276,1.549 1.628,1.549 1.351,0 1.628,-1.148 1.628,-1.543 l -0.133,-0.14 -2.984,0 -0.139,0.134 z m 5.626,-1.773 0.143,0.143 0,0.677 c 0,3.314 -2.231,4.49 -4.141,4.49 -1.911,0 -4.142,-1.176 -4.142,-4.49 0,-2.072 1.131,-4.491 4.317,-4.491 2.914,0 3.5,1.914 3.612,2.549 l -0.139,0.139 -2.052,0 -0.153,-0.153 c -0.172,-0.332 -0.669,-0.546 -1.268,-0.546 -1.497,0 -1.803,1.123 -1.803,1.538 l 0.134,0.144 5.492,0 z"
           style="fill:#ffffff;fill-opacity:1;fill-rule:nonzero;stroke:none"
           id="path4172"
           inkscape:connector-curvature="0" />
        <path
           d="m 706.7453,71.2222 -0.216,0.64 -0.15,0.15 -1.878,0 -0.142,-0.143 0,-8.346 0.142,-0.143 2.053,0 0.143,0.143 0,4.173 c 0,1.653 0.573,2.327 1.978,2.327 l 1.201,0 0.143,0.143 0,1.703 -0.143,0.143 -1.026,0 c -1.605,0 -1.942,-0.783 -1.946,-0.79 l -0.159,0 z"
           style="fill:#ffffff;fill-opacity:1;fill-rule:nonzero;stroke:none"
           id="path4174"
           inkscape:connector-curvature="0" />
        <path
           d="m 715.3782,68.5167 c -0.179,0.03 -0.359,0.055 -0.533,0.079 -0.864,0.119 -1.61,0.222 -1.61,0.849 0,0.628 0.489,0.754 1.278,0.754 0.867,0 1.263,-0.172 1.278,-0.556 l 0.144,-0.144 2.052,0 0.143,0.143 c -0.013,1.571 -1.397,2.546 -3.617,2.546 -2.265,0 -3.617,-0.96 -3.617,-2.568 0,-1.458 1.103,-2.381 3.276,-2.744 0.138,-0.023 0.269,-0.042 0.394,-0.061 0.843,-0.128 1.4,-0.212 1.4,-0.867 0,-0.675 -0.829,-0.753 -1.453,-0.753 -0.747,0 -1.44,0.11 -1.453,0.906 l -0.143,0.143 -2.053,0 -0.143,-0.143 c 0.012,-1.787 1.463,-2.895 3.792,-2.895 1.833,0 3.792,0.72 3.792,2.742 0,2.081 -1.977,2.411 -2.927,2.569"
           style="fill:#ffffff;fill-opacity:1;fill-rule:nonzero;stroke:none"
           id="path4176"
           inkscape:connector-curvature="0" />
        <path
           d="m 723.6118,65.1944 c -1.257,0 -1.977,0.912 -1.977,2.502 0,1.59 0.72,2.502 1.977,2.502 1.256,0 1.977,-0.912 1.977,-2.502 0,-1.59 -0.721,-2.502 -1.977,-2.502 m 0,6.993 c -2.622,0 -4.317,-1.763 -4.317,-4.491 0,-2.728 1.695,-4.491 4.317,-4.491 2.622,0 4.316,1.763 4.316,4.491 0,2.728 -1.694,4.491 -4.316,4.491"
           style="fill:#ffffff;fill-opacity:1;fill-rule:nonzero;stroke:none"
           id="path4178"
           inkscape:connector-curvature="0" />
        <path
           d="m 735.196,63.3804 2.053,0 0.143,0.143 0,5.222 c 0,2.123 -1.252,3.442 -3.267,3.442 -0.901,0 -1.748,-0.317 -2.31,-0.942 l -0.16,0 -0.2,0.617 -0.15,0.15 -1.878,0 -0.143,-0.143 0,-8.346 0.143,-0.143 2.053,0 0.143,0.143 0,4.348 c 0,1.544 0.665,2.327 1.977,2.327 0.951,0 1.453,-0.563 1.453,-1.628 l 0,-5.047 0.143,-0.143 z"
           style="fill:#ffffff;fill-opacity:1;fill-rule:nonzero;stroke:none"
           id="path4180"
           inkscape:connector-curvature="0" />
        <path
           d="m 684.334,59.6623 -0.143,0.143 -2.053,0 -0.143,-0.143 0,-7.32 c 0,-1.892 -0.841,-2.852 -2.502,-2.852 -1.66,0 -2.502,0.96 -2.502,2.852 l 0,7.32 -0.142,0.143 -2.053,0 -0.143,-0.143 0,-7.32 c 0,-3.122 1.719,-4.841 4.84,-4.841 3.122,0 4.841,1.719 4.841,4.841 l 0,7.32 z"
           style="fill:#ffffff;fill-opacity:1;fill-rule:nonzero;stroke:none"
           id="path4182"
           inkscape:connector-curvature="0" />
        <path
           d="m 696.0724,59.8052 -0.143,-0.143 0,-1.703 0.143,-0.143 2.053,0 0.143,0.143 0,1.703 -0.143,0.143 -2.053,0 z"
           style="fill:#ffffff;fill-opacity:1;fill-rule:nonzero;stroke:none"
           id="path4184"
           inkscape:connector-curvature="0" />
        <path
           d="m 698.1251,47.6767 0.143,0.143 0,8.346 -0.143,0.143 -2.053,0 -0.142,-0.143 0,-8.346 0.142,-0.143 2.053,0 z"
           style="fill:#ffffff;fill-opacity:1;fill-rule:nonzero;stroke:none"
           id="path4186"
           inkscape:connector-curvature="0" />
        <path
           d="m 706.1066,56.3087 -0.151,-0.151 -2.147,-5.538 -0.174,0 -2.143,5.538 -0.15,0.151 -1.529,0 -0.142,-0.143 0,-1.714 2.963,-6.623 0.151,-0.152 1.878,0 0.152,0.152 2.963,6.623 0,1.714 -0.143,0.143 -1.528,0 z"
           style="fill:#ffffff;fill-opacity:1;fill-rule:nonzero;stroke:none"
           id="path4188"
           inkscape:connector-curvature="0" />
        <path
           d="m 729.2675,52.813 c -0.18,0.03 -0.359,0.055 -0.533,0.079 -0.864,0.119 -1.61,0.222 -1.61,0.849 0,0.628 0.489,0.754 1.278,0.754 0.867,0 1.263,-0.172 1.278,-0.556 l 0.143,-0.144 2.053,0 0.142,0.143 c -0.013,1.571 -1.396,2.546 -3.616,2.546 -2.265,0 -3.617,-0.961 -3.617,-2.569 0,-1.457 1.103,-2.381 3.276,-2.743 0.138,-0.023 0.269,-0.043 0.394,-0.061 0.843,-0.128 1.4,-0.212 1.4,-0.867 0,-0.675 -0.83,-0.753 -1.453,-0.753 -0.748,0 -1.44,0.11 -1.453,0.905 l -0.143,0.144 -2.053,0 -0.143,-0.143 c 0.012,-1.787 1.463,-2.895 3.792,-2.895 1.833,0 3.792,0.72 3.792,2.742 0,2.081 -1.977,2.411 -2.927,2.569"
           style="fill:#ffffff;fill-opacity:1;fill-rule:nonzero;stroke:none"
           id="path4190"
           inkscape:connector-curvature="0" />
        <path
           d="m 735.7915,47.6767 0.143,0.143 0,8.346 -0.143,0.143 -2.053,0 -0.142,-0.143 0,-8.346 0.142,-0.143 2.053,0 z"
           style="fill:#ffffff;fill-opacity:1;fill-rule:nonzero;stroke:none"
           id="path4192"
           inkscape:connector-curvature="0" />
        <path
           d="m 733.7386,59.8052 -0.143,-0.143 0,-1.703 0.143,-0.143 2.053,0 0.143,0.143 0,1.703 -0.143,0.143 -2.053,0 z"
           style="fill:#ffffff;fill-opacity:1;fill-rule:nonzero;stroke:none"
           id="path4194"
           inkscape:connector-curvature="0" />
        <path
           d="m 741.6528,47.6767 1.551,0 0.143,0.143 0,1.703 -0.143,0.143 -1.551,0 c -0.379,0 -0.579,0.2 -0.579,0.579 l 0,3.933 0.141,0.142 1.989,0 0.143,0.143 0,1.703 -0.143,0.143 -1.992,0 -0.138,0.141 0,1.639 -0.143,0.143 -2.053,0 -0.143,-0.143 0,-1.639 -0.144,-0.141 -1.286,0 -0.143,-0.143 0,-1.703 0.143,-0.143 1.294,0 0.136,-0.14 0,-3.935 c 0,-2.318 2.041,-2.568 2.918,-2.568"
           style="fill:#ffffff;fill-opacity:1;fill-rule:nonzero;stroke:none"
           id="path4196"
           inkscape:connector-curvature="0" />
        <path
           d="m 691.9828,47.6767 2.053,0 0.143,0.143 0,5.222 c 0,2.123 -1.252,3.442 -3.267,3.442 -0.901,0 -1.748,-0.317 -2.311,-0.942 l -0.159,0 -0.201,0.617 -0.149,0.15 -1.878,0 -0.143,-0.143 0,-8.346 0.143,-0.143 2.053,0 0.143,0.143 0,4.348 c 0,1.544 0.665,2.327 1.977,2.327 0.95,0 1.453,-0.563 1.453,-1.628 l 0,-5.047 0.143,-0.143 z"
           style="fill:#ffffff;fill-opacity:1;fill-rule:nonzero;stroke:none"
           id="path4198"
           inkscape:connector-curvature="0" />
        <path
           d="m 711.0778,52.9462 c 0,0.43 0.276,1.548 1.628,1.548 1.351,0 1.628,-1.147 1.628,-1.543 l -0.133,-0.139 -2.983,0 -0.14,0.134 z m 5.626,-1.773 0.143,0.143 0,0.677 c 0,3.314 -2.231,4.49 -4.141,4.49 -1.911,0 -4.141,-1.176 -4.141,-4.49 0,-2.072 1.13,-4.491 4.316,-4.491 2.914,0 3.5,1.914 3.613,2.549 l -0.139,0.139 -2.053,0 -0.153,-0.153 c -0.172,-0.332 -0.668,-0.547 -1.268,-0.547 -1.497,0 -1.803,1.123 -1.803,1.538 l 0.134,0.145 5.492,0 z"
           style="fill:#ffffff;fill-opacity:1;fill-rule:nonzero;stroke:none"
           id="path4200"
           inkscape:connector-curvature="0" />
        <path
           d="m 720.6346,55.5185 -0.216,0.64 -0.15,0.15 -1.878,0 -0.142,-0.143 0,-8.346 0.142,-0.143 2.053,0 0.143,0.143 0,4.173 c 0,1.653 0.573,2.328 1.978,2.328 l 1.201,0 0.143,0.142 0,1.703 -0.143,0.143 -1.026,0 c -1.605,0 -1.942,-0.783 -1.946,-0.79 l -0.159,0 z"
           style="fill:#ffffff;fill-opacity:1;fill-rule:nonzero;stroke:none"
           id="path4202"
           inkscape:connector-curvature="0" />
        <path
           d="m 745.9249,44.2383 c 2.497,0 3.148,1.611 3.796,3.229 l 2.793,6.983 0,1.716 -0.143,0.142 -1.528,0 -0.151,-0.15 -2.133,-6.045 -0.205,0 -2.127,6.045 -0.15,0.15 -1.528,0 -0.143,-0.142 0,-1.715 2.797,-6.829 -0.003,-0.192 c -0.199,-0.641 -0.461,-1.203 -1.275,-1.203 l -0.852,0 -0.142,-0.143 0,-1.703 0.142,-0.143 0.852,0 z"
           style="fill:#ffffff;fill-opacity:1;fill-rule:nonzero;stroke:none"
           id="path4204"
           inkscape:connector-curvature="0" />
      </g>
    </g>
  </g>
</svg>
